<svg xmlns="http://www.w3.org/2000/svg" viewBox="0 0 800 600" width="800" height="600" role="img">

  <rect width="800" height="600" fill="#F2F5FA"/>
  <circle cx="360" cy="510" r="230" fill="#0C2340" opacity="0.16"/>
  <circle cx="730" cy="270" r="190" fill="#ED6A2C" opacity="0.10"/>
  <g stroke="#0C2340" stroke-opacity="0.06" stroke-width="1">
    <line x1="0" y1="0" x2="0" y2="600"/><line x1="60" y1="0" x2="60" y2="600"/><line x1="120" y1="0" x2="120" y2="600"/><line x1="180" y1="0" x2="180" y2="600"/><line x1="240" y1="0" x2="240" y2="600"/><line x1="300" y1="0" x2="300" y2="600"/><line x1="360" y1="0" x2="360" y2="600"/><line x1="420" y1="0" x2="420" y2="600"/><line x1="480" y1="0" x2="480" y2="600"/><line x1="540" y1="0" x2="540" y2="600"/><line x1="600" y1="0" x2="600" y2="600"/><line x1="660" y1="0" x2="660" y2="600"/><line x1="720" y1="0" x2="720" y2="600"/><line x1="780" y1="0" x2="780" y2="600"/><line x1="840" y1="0" x2="840" y2="600"/>
    <line x1="0" y1="0" x2="800" y2="0"/><line x1="0" y1="60" x2="800" y2="60"/><line x1="0" y1="120" x2="800" y2="120"/><line x1="0" y1="180" x2="800" y2="180"/><line x1="0" y1="240" x2="800" y2="240"/><line x1="0" y1="300" x2="800" y2="300"/><line x1="0" y1="360" x2="800" y2="360"/><line x1="0" y1="420" x2="800" y2="420"/><line x1="0" y1="480" x2="800" y2="480"/><line x1="0" y1="540" x2="800" y2="540"/><line x1="0" y1="600" x2="800" y2="600"/>
  </g>

  <ellipse cx="400" cy="508" rx="205" ry="26" fill="#0C2340" opacity="0.10"/>
  <g transform="translate(285 92)">
    <rect x="0" y="0" width="230" height="390" rx="22" fill="#FFFFFF" stroke="#22334A" stroke-width="9"/>
    <line x1="0" y1="140" x2="230" y2="140" stroke="#22334A" stroke-width="7"/>
    <rect x="176" y="40" width="12" height="60" rx="6" fill="#ED6A2C"/>
    <rect x="176" y="180" width="12" height="90" rx="6" fill="#22334A" opacity="0.3"/>
    <rect x="34" y="180" width="110" height="16" rx="8" fill="#22334A" opacity="0.12"/>
    <rect x="34" y="212" width="80" height="16" rx="8" fill="#22334A" opacity="0.12"/>
    <circle cx="70" cy="86" r="16" fill="#ED6A2C" opacity="0.35"/>
  </g>

</svg>
